<svg xmlns:xlink="http://www.w3.org/1999/xlink" width="22" height="22" class="absolute inset-0 m-auto text-white" viewBox="0 0 20 22" fill="none" xmlns="http://www.w3.org/2000/svg"><path d="M1.41872 17.2693L9.15255 21.7476C9.72424 22.0792 10.256 22.089 10.8474 21.7476L18.5813 17.2693C19.4977 16.7372 20 16.1948 20 14.739V6.78622C20 5.67189 19.5666 5.03911 18.7587 4.56699L11.7933 0.530823C10.5814 -0.182073 9.39888 -0.17179 8.20673 0.530823L1.24133 4.56742C0.433394 5.03911 0 5.67189 0 6.78665V14.739C0 16.1948 0.502333 16.7372 1.41872 17.2693ZM10 10.1104L2.49233 5.78243L8.90622 2.04658C9.6553 1.61516 10.3249 1.60531 11.0938 2.04658L17.5073 5.78243L10 10.1104ZM2.3452 15.8632C1.78318 15.5419 1.59612 15.2304 1.59612 14.6885V7.19793L9.17231 11.6064V19.8197L2.3452 15.8632ZM17.6552 15.8632L10.8277 19.8193V11.606L18.4039 7.19793V14.6893C18.4039 15.2313 18.2168 15.5427 17.6552 15.8641" fill="#FFFFFF"></path></svg>