<svg xmlns:xlink="http://www.w3.org/1999/xlink" width="24" height="24" viewBox="0 0 24 24" fill="none" xmlns="http://www.w3.org/2000/svg" class="absolute inset-0 m-auto text-white"><path fill-rule="evenodd" clip-rule="evenodd" d="M10.4763 9.85043C10.4763 10.8104 9.69763 11.589 8.73768 11.589C7.77772 11.589 7 10.8104 7 9.85043C7 8.89049 7.77772 8.11182 8.73768 8.11182C9.69763 8.11182 10.4754 8.88955 10.4763 9.84856V9.85043Z" fill="#FFFFFF"></path><rect x="2.75" y="3.86182" width="18.5" height="16.5" rx="3.25" stroke="#FFFFFF" stroke-width="1.5px" fill="none"></rect><path d="M15.758 13.1118C17.5271 13.1118 19.1544 14.6938 20 15.4766V19.1118H4C4 19.1118 5.29914 17.0464 6.6586 16.0349C8.01806 15.0235 9.56678 16.6015 11.2673 16.6015C12.9687 16.6015 13.9898 13.1118 15.758 13.1118Z" fill="#FFFFFF" stroke="#FFFFFF" stroke-width="1.5px" stroke-linecap="round" stroke-linejoin="round"></path></svg>