<svg xmlns:xlink="http://www.w3.org/1999/xlink" width="22" height="22" class="absolute inset-0  right-[1px] m-auto text-white" viewBox="0 0 24 24" fill="none" xmlns="http://www.w3.org/2000/svg"><path d="M16.4998 21.174C15.4998 20.5 14.3718 20 12.9998 20C10.9418 20 9.07179 22.356 6.99979 22C4.92779 21.644 4.22479 18.631 5.49979 17.5" stroke="#FFFFFF" stroke-width="2px" stroke-linecap="round" stroke-linejoin="round" fill="none"></path><path d="M10.165 8.40356C10.7043 10.6535 12.5111 12.4106 14.7882 12.8777L6.83049 18.7674C6.60581 18.9339 6.32644 19.0157 6.04426 18.9976C5.76209 18.9795 5.49628 18.8627 5.2962 18.6689L4.34224 17.7427C4.14504 17.5516 4.02487 17.2984 4.00345 17.0288C3.98204 16.7593 4.06079 16.4912 4.22547 16.2731L10.165 8.40356Z" fill="#FFFFFF"></path><circle cx="16.5" cy="6.5" r="5.5" fill="#FFFFFF"></circle></svg>