<svg xmlns:xlink="http://www.w3.org/1999/xlink" width="24" height="24" class="absolute inset-0 m-auto text-white" viewBox="0 0 24 24" fill="none" xmlns="http://www.w3.org/2000/svg"><path d="M14.9472 14.4612C14.6244 14.8306 14.4629 15.0153 14.2819 15.1777C14.121 15.3219 13.9487 15.4529 13.7667 15.5693C13.5618 15.7004 13.3384 15.8077 12.8914 16.0223C11.8174 16.538 11.2804 16.7959 10.9271 16.705C10.6205 16.626 10.3693 16.4065 10.25 16.1132C10.1126 15.7753 10.2963 15.2086 10.6635 14.0752C10.8164 13.6035 10.8928 13.3677 10.9952 13.1471C11.0863 12.9511 11.193 12.7629 11.3144 12.5842C11.4511 12.383 11.6125 12.1983 11.9354 11.8289L17.0023 6.03138C17.076 5.94704 17.1129 5.90487 17.1574 5.88701C17.1966 5.87129 17.2398 5.86839 17.2807 5.87871C17.3273 5.89045 17.3695 5.92731 17.4538 6.00102L19.9838 8.21213C20.0681 8.28584 20.1103 8.3227 20.1281 8.36727C20.1438 8.40647 20.1467 8.44964 20.1364 8.4906C20.1247 8.53715 20.0878 8.57932 20.0141 8.66366L14.9472 14.4612Z" fill="#FFFFFF"></path><path d="M20.8883 7.65066C20.8146 7.73499 20.7778 7.77716 20.7332 7.79503C20.694 7.81075 20.6508 7.81365 20.6099 7.80333C20.5633 7.79159 20.5211 7.75473 20.4368 7.68102L17.9096 5.47231C17.8253 5.3986 17.7831 5.36175 17.7652 5.31718C17.7495 5.27798 17.7466 5.23481 17.7569 5.19385C17.7687 5.14729 17.8055 5.10512 17.8792 5.02079L18.3305 4.50446C18.6354 4.15563 18.7878 3.98121 18.9511 3.87147C19.3968 3.57199 19.9685 3.53354 20.4502 3.77066C20.6267 3.85755 20.8012 4.00999 21.15 4.31486C21.4988 4.61972 21.6732 4.77216 21.783 4.93546C22.0824 5.3811 22.1209 5.95283 21.8838 6.43456C21.7969 6.61108 21.6444 6.7855 21.3396 7.13432L20.8883 7.65066Z" fill="#FFFFFF"></path><path d="M9.5 18C9.5 18 7.2314 20.6818 6 20C4.7686 19.3182 8.43957 14.8136 8.43957 13.0357C8.43957 12.0802 5.54026 16.2053 3.75331 16.7185C0.87539 17.5452 7.17108 5 7.17108 5" stroke="#FFFFFF" stroke-width="1.5px" stroke-linecap="round" stroke-linejoin="round" fill="none"></path></svg>